<?xml version="1.0" encoding="UTF-8"?>
<!DOCTYPE svg PUBLIC "-//W3C//DTD SVG 1.1//EN" "http://www.w3.org/Graphics/SVG/1.1/DTD/svg11.dtd">
<!-- Creator: CorelDRAW -->
<svg xmlns="http://www.w3.org/2000/svg" xml:space="preserve" width="178.194mm" height="81.7862mm" version="1.1" style="shape-rendering:geometricPrecision; text-rendering:geometricPrecision; image-rendering:optimizeQuality; fill-rule:evenodd; clip-rule:evenodd"
viewBox="0 0 17819.44 8178.62"
 xmlns:xlink="http://www.w3.org/1999/xlink"
 xmlns:xodm="http://www.corel.com/coreldraw/odm/2003">
 <defs>
  <style type="text/css">
   <![CDATA[
    .fil2 {fill:#CD9064;fill-rule:nonzero}
    .fil4 {fill:#734C31;fill-rule:nonzero}
    .fil0 {fill:#3C302D;fill-rule:nonzero}
    .fil1 {fill:url(#id0)}
    .fil3 {fill:url(#id1)}
    .fil5 {fill:url(#id2)}
   ]]>
  </style>
  <linearGradient id="id0" gradientUnits="userSpaceOnUse" x1="3283.71" y1="6685.21" x2="3283.71" y2="1491.79">
   <stop offset="0" style="stop-opacity:1; stop-color:#725A43"/>
   <stop offset="1" style="stop-opacity:1; stop-color:#3D302C"/>
  </linearGradient>
  <linearGradient id="id1" gradientUnits="userSpaceOnUse" x1="4414.49" y1="7034.29" x2="4869.13" y2="464.51">
   <stop offset="0" style="stop-opacity:1; stop-color:#734C31"/>
   <stop offset="0.509804" style="stop-opacity:1; stop-color:#AF6E3E"/>
   <stop offset="1" style="stop-opacity:1; stop-color:#CF9064"/>
  </linearGradient>
  <linearGradient id="id2" gradientUnits="userSpaceOnUse" x1="2152.93" y1="1125.51" x2="1698.29" y2="7655.9">
   <stop offset="0" style="stop-opacity:1; stop-color:#CF9064"/>
   <stop offset="0.490196" style="stop-opacity:1; stop-color:#AF6E3E"/>
   <stop offset="1" style="stop-opacity:1; stop-color:#734C31"/>
  </linearGradient>
 </defs>
 <g id="Camada_x0020_2">
  <metadata id="CorelCorpID_0Corel-Layer"/>
  <path class="fil0" d="M5864.19 3646.46c-65.93,39.15 -112.29,92.67 -139.03,160.62l729.09 0c-24.73,-65.87 -64.88,-118.93 -120.51,-159.11 -55.6,-40.11 -127.71,-60.18 -216.25,-60.18 -102.98,0 -187.4,19.58 -253.3,58.67zm846.46 420.12l-1007.11 0c16.47,90.7 57.15,164.29 122.02,220.87 64.88,56.69 157.03,84.99 276.51,84.99 86.5,0 167.82,-17.01 244.05,-50.98 76.17,-34.01 136.92,-81.88 182.25,-143.65 137.93,67.98 321.27,141.11 549.87,219.36 -63.85,144.18 -179.7,259.01 -347.52,344.41 -167.89,85.52 -386.68,128.2 -656.48,128.2 -350.13,0 -609.11,-80.78 -776.93,-242.46 -167.88,-161.68 -251.77,-374.3 -251.77,-637.96 0,-257.39 83.39,-466.45 250.22,-627.1 166.83,-160.66 426.3,-240.98 778.48,-240.98 210.08,0 392.36,35.06 546.8,105.05 154.45,70.03 272.88,167.36 355.29,291.93 82.33,124.63 123.54,267.23 123.54,427.88 0,53.55 -2.05,93.73 -6.18,120.44l-383.04 0z"/>
  <polygon class="fil0" points="8907.09,4363.18 9172.77,3152.17 9787.52,3152.17 9444.62,4838.9 8619.79,4838.9 8425.16,4051.15 8205.84,4838.9 7411.91,4838.9 7068.98,3152.17 7683.76,3152.17 7946.33,4360.08 8125.51,3152.17 8734.09,3152.17 "/>
  <path class="fil0" d="M11310.51 3705.17c-189.51,-12.38 -362.51,-21.62 -519.01,-27.8l-3.1 327.42c0,111.23 24.16,198.26 72.6,261.05 48.37,62.87 134.37,94.23 257.95,94.23 47.35,0 92.71,-4.13 135.96,-12.35 -8.25,76.24 -12.38,153.42 -12.38,231.71 0,37.04 2.05,121.53 6.21,253.29 -90.66,16.48 -166.86,26.74 -228.64,30.9 -61.8,4.13 -142.09,6.18 -240.94,6.18 -240.99,0 -411.41,-58.18 -511.28,-174.56 -99.95,-116.31 -149.83,-278.48 -149.83,-486.51l3.07 -522.08c-96.84,4.09 -197.7,10.3 -302.75,18.52l0 -546.84c107.06,0 197.73,-33.97 271.88,-101.92 74.12,-67.98 118.39,-149.29 132.82,-244.05l840.28 0c-105.05,144.18 -221.4,259.51 -349.1,345.97l596.26 0 0 546.84z"/>
  <path class="fil0" d="M12283.58 3646.46c-65.93,39.15 -112.29,92.67 -139.03,160.62l729.05 0c-24.69,-65.87 -64.87,-118.93 -120.51,-159.11 -55.56,-40.11 -127.67,-60.18 -216.21,-60.18 -103.02,0 -187.44,19.58 -253.3,58.67zm846.46 420.12l-1007.15 0c16.51,90.7 57.19,164.29 122.03,220.87 64.91,56.69 157.02,84.99 276.5,84.99 86.54,0 167.86,-17.01 244.06,-50.98 76.2,-34.01 136.94,-81.88 182.28,-143.65 137.93,67.98 321.27,141.11 549.87,219.36 -63.85,144.18 -179.7,259.01 -347.52,344.41 -167.92,85.52 -386.72,128.2 -656.48,128.2 -350.14,0 -609.11,-80.78 -776.93,-242.46 -167.88,-161.68 -251.81,-374.3 -251.81,-637.96 0,-257.39 83.43,-466.45 250.26,-627.1 166.79,-160.66 426.3,-240.98 778.48,-240.98 210.07,0 392.35,35.06 546.8,105.05 154.45,70.03 272.84,167.36 355.25,291.93 82.37,124.63 123.58,267.23 123.58,427.88 0,53.55 -2.05,93.73 -6.18,120.44l-383.04 0z"/>
  <path class="fil0" d="M14463.02 4248.85c62.79,63.85 156,95.78 279.54,95.78 68.01,0 128.73,-12.84 182.28,-38.63 53.55,-25.72 102.97,-64.34 148.31,-115.82 175.01,67.95 379.94,126.65 614.75,176.08 -67.95,158.61 -182.81,282.18 -344.45,370.7 -161.72,88.58 -371.23,132.82 -628.69,132.82 -343.96,0 -598.28,-80.3 -763.02,-240.95 -164.79,-160.62 -247.16,-371.72 -247.16,-633.31 0,-261.51 82.37,-472.61 247.16,-633.27 164.74,-160.65 419.06,-240.98 763.02,-240.98 257.46,0 466.97,44.34 628.69,132.85 161.64,88.59 276.5,212.13 344.45,370.74 -183.31,39.12 -388.27,97.82 -614.75,176.07 -45.34,-51.47 -94.76,-90.06 -148.31,-115.85 -53.55,-25.76 -114.27,-38.63 -182.28,-38.63 -123.54,0 -216.75,32 -279.54,95.74 -62.83,63.89 -96.31,148.31 -100.44,253.33 4.13,105.06 37.61,189.51 100.44,253.33z"/>
  <path class="fil0" d="M17124.36 4838.92c12.34,-302.79 18.55,-581.8 18.55,-837.18 0,-90.63 -22.15,-162.66 -66.43,-216.25 -44.34,-53.52 -100.43,-80.33 -168.38,-80.33 -72.11,0 -133.38,35.03 -183.79,105.02 -50.52,70.03 -75.68,165.84 -75.68,287.31l-3.1 -6.18c0,335.74 4.06,584.94 12.35,747.61l-738.33 0c16.47,-296.58 24.73,-698.18 24.73,-1204.84 0,-506.59 -8.26,-908.23 -24.73,-1204.77l735.22 0 3.11 951.51 -3.11 163.69c49.43,-144.11 123.05,-250.69 220.91,-319.76 97.79,-68.97 208.49,-103.47 332.11,-103.47 123.54,0 230.61,27.34 321.24,81.88 90.63,54.61 159.1,128.2 205.45,220.87 46.32,92.71 69.5,196.71 69.5,312l0 444.89c0,273.89 5.12,493.25 15.45,658l-695.07 0z"/>
  <polygon class="fil0" points="5045.53,5418.08 5105.71,5418.08 5203.54,5570.17 5301.44,5418.08 5361.58,5418.08 5361.58,5739.71 5305.1,5739.71 5305.1,5509.07 5203.54,5660.69 5201.7,5660.69 5101.09,5509.95 5101.09,5739.71 5045.53,5739.71 "/>
  <path class="fil0" d="M5980.36 5320.24l50.55 22.05 -58.81 44.56 -43.21 0 51.47 -66.61zm26.17 291.75l-55.56 -128.66 -55.17 128.66 110.73 0zm-80.85 -196.22l52.38 0 141.47 323.92 -59.69 0 -32.64 -77.64 -152.04 0 -33.09 77.64 -57.89 0 141.5 -323.92z"/>
  <path class="fil0" d="M6731.86 5677.69l-55.11 -46.88 36.27 -41.31 55.6 50.48c11.04,-16.97 16.54,-37.68 16.54,-60.19l0 -0.88c0,-62.51 -45.47,-114.4 -109.32,-114.4 -63.89,0 -108.45,50.97 -108.45,113.45l0 0.95c0,62.48 45.48,114.37 109.36,114.37 21.1,0 39.97,-5.96 55.11,-15.59zm41.8 37.22c-27.09,19.3 -60.18,30.27 -97.82,30.27 -98.82,0 -167.71,-74.86 -167.71,-165.39l0 -0.88c0,-90.52 69.85,-166.33 168.62,-166.33 98.78,0 167.68,74.89 167.68,165.38l0 0.95c0,36.27 -11.5,70.73 -32.63,98.78l36.79 31.22 -36.33 40.43 -38.6 -34.43z"/>
  <path class="fil0" d="M7275.23 5603.24l0 -185.17 56.55 0 0 182.88c0,59.73 30.77,91.86 81.32,91.86 50.06,0 80.82,-30.3 80.82,-89.57l0 -185.17 56.52 0 0 182.39c0,96.06 -54.23,144.32 -138.29,144.32 -83.61,0 -136.92,-48.26 -136.92,-141.54z"/>
  <polygon class="fil0" points="7998.74,5418.1 8055.26,5418.1 8055.26,5739.69 7998.74,5739.69 "/>
  <polygon class="fil0" points="8508.62,5418.08 8561,5418.08 8733.26,5640.44 8733.26,5418.08 8788.9,5418.08 8788.9,5739.71 8741.55,5739.71 8564.21,5510.9 8564.21,5739.71 8508.62,5739.71 "/>
  <path class="fil0" d="M9433.81 5611.98l-55.59 -128.66 -55.14 128.66 110.73 0zm-80.89 -196.18l52.39 0 141.53 323.88 -59.76 0 -32.59 -77.64 -152.09 0 -33.09 77.64 -57.89 0 141.5 -323.88z"/>
  <path class="fil0" d="M9942.33 5692.82l33.97 -40.4c30.8,26.64 61.56,41.81 101.53,41.81 34.93,0 56.97,-16.12 56.97,-40.43l0 -0.95c0,-22.97 -12.84,-35.39 -72.6,-49.14 -68.44,-16.55 -107.03,-36.76 -107.03,-96.07l0 -0.88c0,-55.14 45.97,-93.27 109.82,-93.27 46.85,0 84.07,14.25 116.7,40.43l-30.34 42.75c-28.93,-21.62 -57.86,-33.12 -87.28,-33.12 -33.09,0 -52.35,17 -52.35,38.13l0 0.95c0,24.81 14.68,35.85 76.24,50.56 68.01,16.51 103.36,40.85 103.36,94.15l0 0.96c0,60.15 -47.31,95.99 -114.83,95.99 -49.18,0 -95.6,-17.01 -134.16,-51.47z"/>
  <polygon class="fil0" points="11133.91,5418.1 11190.43,5418.1 11190.43,5739.69 11133.91,5739.69 "/>
  <polygon class="fil0" points="11643.74,5418.08 11696.13,5418.08 11868.39,5640.44 11868.39,5418.08 11924.03,5418.08 11924.03,5739.71 11876.68,5739.71 11699.34,5510.9 11699.34,5739.71 11643.74,5739.71 "/>
  <path class="fil0" d="M12494.07 5688.26c67.56,0 111.65,-45.51 111.65,-108.44l0 -0.92c0,-62.94 -44.09,-109.33 -111.65,-109.33l-63.39 0 0 218.69 63.39 0zm-119.91 -270.16l119.91 0c101.07,0 170.92,69.36 170.92,159.88l0 0.92c0,90.49 -69.85,160.79 -170.92,160.79l-119.91 0 0 -321.59z"/>
  <path class="fil0" d="M13095.82 5603.24l0 -185.17 56.52 0 0 182.88c0,59.73 30.76,91.86 81.31,91.86 50.06,0 80.86,-30.3 80.86,-89.57l0 -185.17 56.52 0 0 182.39c0,96.06 -54.23,144.32 -138.29,144.32 -83.65,0 -136.92,-48.26 -136.92,-141.54z"/>
  <path class="fil0" d="M13794.53 5692.82l33.97 -40.4c30.8,26.64 61.56,41.81 101.53,41.81 34.93,0 56.97,-16.12 56.97,-40.43l0 -0.95c0,-22.97 -12.84,-35.39 -72.56,-49.14 -68.48,-16.55 -107.07,-36.76 -107.07,-96.07l0 -0.88c0,-55.14 45.97,-93.27 109.82,-93.27 46.85,0 84.07,14.25 116.7,40.43l-30.34 42.75c-28.93,-21.62 -57.86,-33.12 -87.28,-33.12 -33.09,0 -52.35,17 -52.35,38.13l0 0.95c0,24.81 14.68,35.85 76.24,50.56 68.01,16.51 103.36,40.85 103.36,94.15l0 0.96c0,60.15 -47.31,95.99 -114.83,95.99 -49.18,0 -95.6,-17.01 -134.16,-51.47z"/>
  <polygon class="fil0" points="14549.74,5470.46 14447.71,5470.46 14447.71,5418.07 14708.7,5418.07 14708.7,5470.46 14606.71,5470.46 14606.71,5739.7 14549.74,5739.7 "/>
  <path class="fil0" d="M15275.03 5577.5c40.43,0 66.18,-21.13 66.18,-53.72l0 -0.96c0,-34.43 -24.83,-53.27 -66.64,-53.27l-82.27 0 0 107.95 82.73 0zm-139.21 -159.42l143.34 0c40.46,0 72.14,11.93 92.81,32.18 17.01,17.43 26.64,41.34 26.64,69.39l0 0.88c0,52.85 -31.72,84.56 -76.7,97.4l86.79 121.78 -66.61 0 -78.98 -112.15 -70.81 0 0 112.15 -56.48 0 0 -321.63z"/>
  <polygon class="fil0" points="15838.7,5418.1 15895.21,5418.1 15895.21,5739.69 15838.7,5739.69 "/>
  <path class="fil0" d="M16543.36 5611.98l-55.6 -128.66 -55.14 128.66 110.74 0zm-80.89 -196.18l52.38 0 141.54 323.88 -59.76 0 -32.6 -77.64 -152.08 0 -33.09 77.64 -57.89 0 141.5 -323.88z"/>
  <polygon class="fil0" points="17082.17,5418.1 17138.69,5418.1 17138.69,5739.69 17082.17,5739.69 "/>
  <path class="fil0" d="M17570.45 5692.82l33.97 -40.4c30.8,26.64 61.56,41.81 101.53,41.81 34.92,0 56.97,-16.12 56.97,-40.43l0 -0.95c0,-22.97 -12.84,-35.39 -72.6,-49.14 -68.44,-16.55 -107.03,-36.76 -107.03,-96.07l0 -0.88c0,-55.14 45.96,-93.27 109.82,-93.27 46.85,0 84.06,14.25 116.7,40.43l-30.34 42.75c-28.93,-21.62 -57.86,-33.12 -87.28,-33.12 -33.09,0 -52.35,17 -52.35,38.13l0 0.95c0,24.81 14.67,35.85 76.23,50.56 68.02,16.51 103.37,40.85 103.37,94.15l0 0.96c0,60.15 -47.31,95.99 -114.83,95.99 -49.18,0 -95.6,-17.01 -134.16,-51.47z"/>
  <polygon class="fil1" points="3926.51,6685.26 3926.51,1491.77 2640.91,1491.77 2640.91,6685.26 "/>
  <path class="fil2" d="M6466.99 151.67c-5.61,77.96 -73.34,136.6 -151.31,130.99 -77.96,-5.61 -136.59,-73.35 -130.98,-151.31 5.6,-77.93 73.34,-136.6 151.3,-130.99 77.93,5.61 136.6,73.35 130.99,151.31z"/>
  <path class="fil2" d="M5933.36 401.31c-7.72,107.6 -101.24,188.56 -208.84,180.84 -107.6,-7.76 -188.56,-101.25 -180.84,-208.88 7.77,-107.6 101.25,-188.56 208.85,-180.8 107.63,7.72 188.56,101.25 180.83,208.84z"/>
  <path class="fil3" d="M6151.12 335.03l-0.72 0c-100.61,0 -140.97,188.98 -235.02,293.02 -84.81,93.76 -243.56,109.5 -344.74,9.42 -182.38,-180.41 -307.72,106.39 -338.1,174.23l-76.62 164.29 -2459.89 5482.34c-176.88,394.23 92.04,844.31 523,875.28 260.66,18.77 505.28,-127.35 612.28,-365.79l2241.37 -4993.43 0.42 0.03 456.11 -1018.93c81.32,-171.8 20.6,-252.48 -68.19,-257.63 -43.75,-2.57 -94.72,61.53 -147.04,125.63 -61.17,74.85 -124.14,149.75 -179.42,118.28 -153.35,-87.2 253.58,-494.24 66.32,-592.63 -18.19,-9.59 -34.69,-13.97 -49.76,-14.11z"/>
  <path class="fil4" d="M100.42 8026.94c5.61,-77.96 73.34,-136.59 151.31,-130.98 77.96,5.61 136.59,73.34 130.98,151.3 -5.6,77.93 -73.34,136.6 -151.3,130.99 -77.93,-5.61 -136.6,-73.34 -130.99,-151.31z"/>
  <path class="fil4" d="M634.05 7777.3c7.73,-107.59 101.25,-188.56 208.85,-180.83 107.59,7.76 188.56,101.25 180.83,208.88 -7.76,107.6 -101.25,188.56 -208.85,180.8 -107.63,-7.73 -188.55,-101.25 -180.83,-208.85z"/>
  <path class="fil5" d="M2736.07 1210.76l-2241.33 4993.47 -0.43 -0.04 -456.07 1018.93c-81.38,171.8 -20.64,252.48 68.12,257.67 43.71,2.54 94.72,-61.52 147.04,-125.62 61.14,-74.86 124.11,-149.76 179.46,-118.33 153.39,87.21 -253.58,494.25 -66.32,592.64 140.01,73.59 177.13,-159.04 285.5,-278.95 84.77,-93.73 243.56,-109.46 344.73,-9.38 182.35,180.41 307.73,-106.43 338.11,-174.2l76.62 -164.32 2459.92 -5482.35c176.88,-394.23 -92.04,-844.3 -523.03,-875.31 -14.99,-1.06 -29.95,-1.62 -44.84,-1.62 -243.56,0 -466.58,142.7 -567.48,367.41z"/>
 </g>
</svg>
